<?xml version="1.0" encoding="UTF-8" standalone="no"?>
<!-- Created with Inkscape (http://www.inkscape.org/) -->

<svg
   xmlns:dc="http://purl.org/dc/elements/1.1/"
   xmlns:cc="http://creativecommons.org/ns#"
   xmlns:rdf="http://www.w3.org/1999/02/22-rdf-syntax-ns#"
   xmlns:svg="http://www.w3.org/2000/svg"
   xmlns="http://www.w3.org/2000/svg"
   xmlns:sodipodi="http://sodipodi.sourceforge.net/DTD/sodipodi-0.dtd"
   xmlns:inkscape="http://www.inkscape.org/namespaces/inkscape"
   width="28.98583cm"
   height="28.98583cm"
   viewBox="0 0 289.85831 289.8583"
   version="1.1"
   id="svg4515"
   inkscape:version="0.92.1 r15371"
   sodipodi:docname="blockbench_inverted.svg">
  <defs
     id="defs4509" />
  <sodipodi:namedview
     id="base"
     pagecolor="#ffffff"
     bordercolor="#666666"
     borderopacity="1.0"
     inkscape:pageopacity="0.0"
     inkscape:pageshadow="2"
     inkscape:zoom="0.7"
     inkscape:cx="526.76329"
     inkscape:cy="467.40468"
     inkscape:document-units="mm"
     inkscape:current-layer="layer1"
     showgrid="false"
     fit-margin-top="0"
     fit-margin-left="0"
     fit-margin-right="0"
     fit-margin-bottom="0"
     inkscape:window-width="1920"
     inkscape:window-height="1017"
     inkscape:window-x="3832"
     inkscape:window-y="444"
     inkscape:window-maximized="1"
     units="cm" />
  <metadata
     id="metadata4512">
    <rdf:RDF>
      <cc:Work
         rdf:about="">
        <dc:format>image/svg+xml</dc:format>
        <dc:type
           rdf:resource="http://purl.org/dc/dcmitype/StillImage" />
        <dc:title></dc:title>
      </cc:Work>
    </rdf:RDF>
  </metadata>
  <g
     inkscape:label="Ebene 1"
     inkscape:groupmode="layer"
     id="layer1"
     transform="translate(140.57843,-0.59405263)">
    <path
       style="fill:#000000;stroke-width:1.33333325"
       d="m 1079.6094,179.12695 c -11.3976,0.0972 -46.0525,2.61279 -158.38479,10.34766 -139.11553,9.56706 -278.59149,19.18537 -416,28.59375 -138.96246,9.51344 -125.22214,8.22528 -131.83008,12.35352 -7.42579,4.63916 -11.6186,12.50763 -14.08398,26.43359 -20.56476,99.40852 -37.05185,170.74363 -50.35938,228.5625 -0.70159,1.83333 -2.12806,8.13334 -3.16992,14 -1.76481,9.93736 -1.72877,10.89459 0.52734,14 4.76232,6.55498 10.51182,8.04051 51.98243,13.42773 157.20085,20.54322 321.3976,42.23684 466.26757,61.23438 57.0344,7.47726 108.27189,14.25431 146,19.30859 42.48751,5.69189 43.27001,5.70975 45.14061,1.0293 1.4828,-3.70987 4.1982,-16.41617 9.4707,-44.33399 21.7541,-112.65861 47.0083,-244.95346 65.4141,-338.66601 5.7577,-29.31355 6.0272,-32.5217 3.1562,-37.4375 -1.4354,-2.45778 -4.5756,-5.6162 -6.9785,-7.01953 -1.8472,-1.07887 -0.3138,-1.89229 -7.1523,-1.83399 z M 273.88672,544.67578 c -5.46815,-0.0579 -10.67198,0.33864 -15.9961,1.16406 -7.33333,1.13692 -64.63202,9.33334 -127.33203,18.21485 -62.699972,8.88151 -116.600559,17.09049 -119.779293,18.24219 -9.5646615,3.46532 -13.4346832,12.99373 -8.8652345,21.83007 2.8185449,5.45046 9.8390385,8.69959 31.9765625,14.79688 2.933329,0.80791 6.834633,1.96203 8.667969,2.56445 207.229376,58.14639 426.236016,122.2743 619.999996,177.44727 10.87851,3.26673 25.72309,8.98286 35.18164,9.01172 7.15149,-1.92791 48.02189,-22.09277 140.66602,-68.71289 75.25013,-37.86717 137.93062,-69.81496 139.28906,-70.9961 5.15751,-4.48486 7.89228,-14.16449 5.17578,-18.32031 -0.53877,-0.82424 -7.87916,-2.51585 -16.3125,-3.75977 -20.03334,-2.95498 -82.43541,-12.07605 -105.33398,-15.39648 -9.90002,-1.43558 -24.00064,-3.53246 -31.33399,-4.66016 -7.33333,-1.1277 -29.83334,-4.43875 -50,-7.35742 -20.16667,-2.9187 -53.16537,-7.72071 -73.33203,-10.67187 -20.16665,-2.95114 -48.96666,-7.14341 -64,-9.31641 -34.69973,-5.0157 -108.51647,-15.83762 -150,-21.99024 -17.59997,-2.61032 -44.30065,-6.51997 -59.33398,-8.6875 -91.91116,-13.25176 -120.28255,-17.51035 -128,-19.21484 -12.37443,-2.73307 -22.22431,-4.09095 -31.33789,-4.1875 z m -76.70703,148.98438 c -0.33123,-0.0277 -0.5714,-0.0272 -0.70899,0.002 -2.46009,0.51968 -51.24609,105.13484 -51.24609,109.89062 0,4.86637 3.50189,10.84237 7.68359,13.11133 4.63037,2.51233 7.56226,2.55317 14.27149,0.20117 20.2798,-6.31043 41.89931,-13.35065 62.04492,-19.40234 60.072,-18.01652 61.06521,-18.38492 67.43164,-25.0293 5.2735,-5.50371 14.96343,-25.659 17.81055,-37.04687 0.55434,-2.21722 1.72187,-5.36725 2.5957,-7 0.87379,-1.63276 1.36499,-2.96875 1.08984,-2.96875 -35.05321,-9.07264 -71.44518,-18.95372 -104.63672,-28.05469 -7.23953,-1.98534 -14.01736,-3.50893 -16.33593,-3.70312 z m 622.79297,81.67382 c -1.02405,-0.0418 -2.63484,0.71727 -5.60352,2.45118 -3.19578,1.86655 -12.41183,7.09654 -20.47852,11.62109 -21.95474,13.2771 -42.78558,27.07914 -66,38.03516 -18.83685,11.78944 -27.13827,14.35914 -36.57031,11.32421 -9.2039,-2.96151 -33.70848,-9.34765 -35.86523,-9.34765 -1.27291,0 -2.65116,1.04869 -3.06446,2.33203 -0.72274,2.2444 -3.01262,8.67691 -8.6621,24.33398 -9.09805,23.42031 -16.93077,47.06945 -25.13868,69.33399 -3.91566,10.61287 -10.75735,35.02123 -10.65039,37.99609 0.10523,2.93254 6.47597,8.94227 11.40039,10.75391 3.01985,1.11092 7.46402,1.62567 10.55078,1.22265 57.36609,-23.21468 101.10223,-52.49864 149.89649,-78.05273 14.93386,-7.79516 20.41492,-13.25013 22.56445,-22.45898 1.80129,-7.71712 5.17819,-22.73167 7.375,-32.79493 1.12059,-5.13335 3.31878,-15.03331 4.88672,-22 8.33304,-37.02618 8.86431,-40.4826 6.73438,-43.8457 -0.35837,-0.56585 -0.76057,-0.87922 -1.375,-0.9043 z"
       transform="matrix(0.26458333,0,0,0.26458333,-140.57843,0.59405263)"
       id="path5085"
       inkscape:connector-curvature="0"
       sodipodi:nodetypes="ccccccccccscccccccsscsccccsccccscssscccscscccccccccsssccscccccccccccss" />
  </g>
</svg>
